<svg xmlns="http://www.w3.org/2000/svg" width="256" height="256" viewBox="0 0 100 100"><rect width="100" height="100" rx="20" fill="#ff5722"></rect><path fill="#fff" d="M75.02 81.19L67.73 81.19Q65.75 77.86 63.19 73.72Q60.62 69.58 57.65 65.12Q54.68 60.67 51.48 56.08Q48.29 51.48 45.14 47.21Q41.99 42.94 39.02 39.16Q36.05 35.38 33.53 32.50L33.53 32.50L33.53 81.19L24.98 81.19L24.98 18.82L31.91 18.82Q36.14 23.32 40.95 29.30Q45.77 35.29 50.49 41.63Q55.22 47.98 59.41 54.09Q63.59 60.22 66.47 64.98L66.47 64.98L66.47 18.82L75.02 18.82L75.02 81.19Z"></path></svg>